<svg id="Group_7155" data-name="Group 7155" xmlns="http://www.w3.org/2000/svg" width="12" height="12" viewBox="0 0 12 12">
  <path id="Subtraction_27" data-name="Subtraction 27" d="M6,0H6A5.969,5.969,0,1,0,6,11.938a6.027,6.027,0,0,0,5.2-2.985h-.016A5.455,5.455,0,0,1,6.6,11.341,5.251,5.251,0,0,1,1.2,6.267,5.19,5.19,0,0,1,6,1.226V0Z" transform="translate(11.988 12) rotate(180)" fill="#878787"/>
  <path id="Path_648" data-name="Path 648" d="M.422-.231a.6.6,0,1,0,.6.6A.6.6,0,0,0,.422-.231Z" transform="translate(5.609 11)" fill="#878787"/>
  <g id="Path_649" data-name="Path 649" transform="translate(0.547 0.063)" fill="rgba(255,255,255,0)" opacity="0">
    <path d="M 10.953125 11.4375 L -0.046875 11.4375 L -0.046875 0.4375 L 10.953125 0.4375 L 10.953125 11.4375 Z" stroke="none"/>
    <path d="M 0.453125 0.9375 L 0.453125 10.9375 L 10.453125 10.9375 L 10.453125 0.9375 L 0.453125 0.9375 M -0.546875 -0.0625 L 11.453125 -0.0625 L 11.453125 11.9375 L -0.546875 11.9375 L -0.546875 -0.0625 Z" stroke="none" fill="#878787"/>
  </g>
</svg>